# xmcd
#
# Track frame offsets:
#	150
#	18441
#	40809
#	58128
#	78930
#	92928
#	107720
#	123348
#	140771
#	161437
#	175555
#	194395
#	210349
#	224091
#	239798
#
# Disc length: 3476 seconds
#
# Revision: 0
# Processed by: cddbd v1.5.2PL0 Copyright (c) Steve Scherf et al.
# Submitted via: EZCDAudioConverter 2.4.0.1
#
DISCID=d70d920f
DTITLE=Daniel - Em Qualquer Lugar do Mundo
DYEAR=2004
DGENRE=Sertanejo
TTITLE0=Em Qualquer Lugar do Mundo
TTITLE1=A chama do Amor
TTITLE2=Correnteza e Emoção
TTITLE3=Querida
TTITLE4=Direto do Coração
TTITLE5=Jogado na Rua
TTITLE6=Memórias de Uma Paixão
TTITLE7=Boêmio Apaixonado
TTITLE8=Os Amantes
TTITLE9=Machuca Eu
TTITLE10=Bem Simplesinho
TTITLE11=Sombra Boa e Água Fresca
TTITLE12=Vou de Fusca
TTITLE13=Um Homem Que Chora à Toa
TTITLE14=Meu Pai
EXTD=
EXTT0=
EXTT1=
EXTT2=
EXTT3=
EXTT4=
EXTT5=
EXTT6=
EXTT7=
EXTT8=
EXTT9=
EXTT10=
EXTT11=
EXTT12=
EXTT13=
EXTT14=
PLAYORDER=
